<svg width="48px" height="48px" viewBox="0 0 48 48" fill="none" xmlns="http://www.w3.org/2000/svg">
<path d="M41.3438 0H4.21875C1.89253 0 0 1.89253 0 4.21875V41.3438C0 43.67 1.89253 45.5625 4.21875 45.5625H31.9688C32.3418 45.5625 32.6994 45.4143 32.9631 45.1506L45.1506 32.9631C45.4144 32.6993 45.5625 32.3417 45.5625 31.9688V4.21875C45.5625 1.89253 43.67 0 41.3438 0Z" fill="#6D6D80"/>
<path d="M22.7812 0H4.21875C1.89253 0 0 1.89253 0 4.21875V22.7812H22.7812V0Z" fill="#6D6D80"/>
<path d="M45.5625 22.7812V4.21875C45.5625 1.89253 43.67 0 41.3438 0H22.7812V22.7812H45.5625Z" fill="#575766"/>
<path d="M22.7812 22.7812V45.5625H31.9688C32.3418 45.5625 32.6994 45.4143 32.9631 45.1506L45.1506 32.9631C45.4144 32.6993 45.5625 32.3417 45.5625 31.9688V22.7812H22.7812ZM44.1562 31.9688H44.1572H44.1562Z" fill="#414141"/>
<path d="M0 22.7812V41.3438C0 43.67 1.89253 45.5625 4.21875 45.5625H22.7812V22.7812H0Z" fill="#575766"/>
<path d="M14.6719 9.98438H12.7969V8.10938C12.7969 7.33275 12.1673 6.70312 11.3906 6.70312C10.614 6.70312 9.98438 7.33275 9.98438 8.10938V9.98438H8.10938C7.33275 9.98438 6.70312 10.614 6.70312 11.3906C6.70312 12.1673 7.33275 12.7969 8.10938 12.7969H9.98438V14.6719C9.98438 15.4485 10.614 16.0781 11.3906 16.0781C12.1673 16.0781 12.7969 15.4485 12.7969 14.6719V12.7969H14.6719C15.4485 12.7969 16.0781 12.1673 16.0781 11.3906C16.0781 10.614 15.4485 9.98438 14.6719 9.98438Z" fill="#FCFDFF"/>
<path d="M37.4531 12.7969H30.8906C30.114 12.7969 29.4844 12.1673 29.4844 11.3906C29.4844 10.614 30.114 9.98438 30.8906 9.98438H37.4531C38.2297 9.98438 38.8594 10.614 38.8594 11.3906C38.8594 12.1673 38.2297 12.7969 37.4531 12.7969Z" fill="#FCFDFF"/>
<path d="M13.3793 34.1719L14.7287 32.8224C15.2779 32.2733 15.2779 31.3829 14.7287 30.8337C14.1796 30.2845 13.2892 30.2845 12.74 30.8337L11.3906 32.1832L10.0412 30.8337C9.49206 30.2845 8.60163 30.2845 8.05244 30.8337C7.50325 31.3829 7.50325 32.2733 8.05244 32.8224L9.40187 34.1719L8.05244 35.5213C7.50325 36.0705 7.50325 36.9609 8.05244 37.51C8.32703 37.7846 8.68694 37.922 9.04675 37.922C9.40656 37.922 9.76656 37.7847 10.0411 37.51L11.3905 36.1606L12.7399 37.51C13.0145 37.7846 13.3744 37.922 13.7342 37.922C14.0941 37.922 14.4541 37.7847 14.7286 37.51C15.2777 36.9609 15.2777 36.0705 14.7286 35.5213L13.3793 34.1719Z" fill="#FCFDFF"/>
<path d="M33.4688 48C25.4561 48 18.9375 41.4813 18.9375 33.4688C18.9375 25.4562 25.4561 18.9375 33.4688 18.9375C41.4814 18.9375 48 25.4562 48 33.4688C48 41.4813 41.4814 48 33.4688 48Z" fill="#F1972C"/>
<path d="M36.75 37.6875H30.1875C29.4109 37.6875 28.7812 37.0579 28.7812 36.2812C28.7812 35.5046 29.4109 34.875 30.1875 34.875H36.75C37.5266 34.875 38.1562 35.5046 38.1562 36.2812C38.1562 37.0579 37.5266 37.6875 36.75 37.6875Z" fill="#FCFDFF"/>
<path d="M36.75 32.0625H30.1875C29.4109 32.0625 28.7812 31.4329 28.7812 30.6562C28.7812 29.8796 29.4109 29.25 30.1875 29.25H36.75C37.5266 29.25 38.1562 29.8796 38.1562 30.6562C38.1562 31.4329 37.5266 32.0625 36.75 32.0625Z" fill="#FCFDFF"/>
</svg>
